<?xml version="1.0" standalone="no"?>
<!DOCTYPE svg PUBLIC "-//W3C//DTD SVG 20010904//EN"
 "http://www.w3.org/TR/2001/REC-SVG-20010904/DTD/svg10.dtd">
<svg version="1.0" xmlns="http://www.w3.org/2000/svg"
 width="640.000000pt" height="480.000000pt" viewBox="0 0 640.000000 480.000000"
 preserveAspectRatio="xMidYMid meet">

<g transform="translate(0.000000,480.000000) scale(0.100000,-0.100000)"
fill="#000000" stroke="none">
<path d="M1400 3191 c-190 -27 -320 -130 -320 -254 0 -48 17 -71 47 -65 14 3
17 12 15 46 -7 108 105 190 286 211 191 21 345 -38 429 -163 45 -66 64 -136
64 -236 0 -294 -217 -567 -476 -599 -96 -11 -285 15 -285 40 0 5 16 41 35 79
20 39 83 191 141 338 111 280 157 379 212 450 37 48 42 82 13 82 -60 0 -169
-201 -304 -555 -68 -177 -144 -353 -162 -373 -2 -2 -24 4 -49 12 -110 38 -191
7 -191 -72 0 -46 17 -70 63 -89 45 -19 92 -8 152 33 l50 34 77 -22 c108 -30
264 -30 347 0 156 57 283 172 359 323 62 125 81 200 80 324 -1 175 -67 300
-203 387 -91 58 -251 87 -380 69z m-391 -1042 c36 -13 37 -17 14 -35 -25 -19
-92 -18 -99 1 -16 41 21 56 85 34z"/>
<path d="M3753 3048 c-5 -7 -33 -71 -63 -143 -104 -250 -128 -300 -142 -295
-39 15 -142 0 -204 -29 -88 -41 -135 -81 -221 -189 -75 -94 -147 -152 -189
-152 -21 0 -21 2 13 70 65 130 65 255 2 303 -23 17 -32 18 -61 8 -44 -14 -71
-43 -97 -101 -47 -108 -50 -210 -6 -275 l24 -34 -31 -26 c-64 -54 -130 -72
-162 -45 -24 19 -35 73 -26 121 18 95 69 180 158 265 37 35 53 57 49 68 -22
57 -160 -60 -225 -190 -41 -82 -136 -164 -188 -164 -21 0 -21 2 12 68 62 125
68 240 14 294 -34 34 -56 35 -101 5 -42 -28 -73 -84 -95 -166 -19 -77 -12
-147 21 -196 l24 -34 -31 -26 c-73 -61 -138 -74 -171 -34 -31 38 -21 138 22
223 31 61 140 186 162 186 13 0 11 37 -2 45 -36 23 -152 -79 -207 -182 -38
-73 -65 -183 -57 -233 14 -85 80 -139 154 -125 47 9 86 30 140 74 38 30 53 36
97 36 41 1 64 8 102 32 l50 31 6 -42 c18 -117 112 -164 221 -109 16 9 50 32
74 52 38 30 53 36 96 36 34 1 65 9 89 23 46 27 46 27 46 0 0 -13 9 -42 20 -66
44 -98 167 -90 285 19 23 21 44 39 47 39 3 0 5 -16 6 -36 1 -20 8 -47 17 -60
36 -55 97 -36 206 65 l67 61 11 -43 c34 -136 151 -151 290 -38 38 30 53 36 97
36 41 1 64 8 102 32 l50 31 7 -43 c14 -96 87 -149 172 -126 22 6 70 32 104 58
54 39 71 47 114 48 27 1 65 9 83 19 39 20 149 118 197 176 19 23 35 39 35 35
0 -4 -75 -182 -166 -395 -98 -229 -164 -396 -160 -405 3 -10 15 -15 27 -13 15
2 29 21 49 68 270 625 274 633 426 787 124 126 184 142 184 48 0 -94 -65 -221
-154 -301 -67 -61 -107 -78 -173 -71 -38 4 -55 2 -64 -9 -32 -39 38 -67 171
-68 134 0 217 46 367 203 73 77 89 113 56 125 -13 5 -42 -18 -115 -93 -84 -86
-182 -161 -212 -161 -5 0 12 22 36 48 93 99 148 221 148 326 0 54 -4 69 -24
93 -46 54 -132 28 -244 -72 -29 -26 -52 -44 -52 -42 0 3 12 33 27 67 24 55 25
63 11 77 -22 22 -33 13 -139 -112 -132 -154 -187 -212 -225 -236 -36 -22 -97
-43 -92 -31 2 4 18 37 36 74 61 124 65 236 12 290 -34 34 -56 35 -101 5 -42
-28 -73 -84 -95 -166 -19 -77 -12 -147 21 -196 l24 -34 -31 -26 c-64 -54 -130
-72 -163 -45 -75 62 14 304 146 396 55 38 51 84 -7 70 -37 -10 -135 -114 -172
-183 -18 -35 -45 -77 -60 -94 -34 -41 -109 -89 -138 -89 -21 0 -21 2 12 68 62
124 67 240 13 294 -33 34 -56 35 -100 5 -42 -28 -73 -84 -95 -166 -19 -77 -12
-147 21 -196 l24 -34 -31 -26 c-108 -91 -192 -72 -190 43 3 100 95 261 178
313 33 20 45 51 23 64 -40 25 -152 -79 -218 -203 -36 -66 -65 -102 -143 -177
-57 -55 -107 -95 -118 -95 -48 0 -9 156 95 380 111 238 225 517 219 534 -7 19
-38 21 -51 4z m-1371 -519 c3 -17 1 -53 -3 -79 -8 -53 -64 -180 -79 -180 -33
0 -42 124 -15 200 30 84 88 120 97 59z m551 4 c9 -45 -11 -134 -43 -200 -17
-35 -35 -63 -40 -63 -33 0 -42 124 -15 200 29 82 87 119 98 63z m597 8 c0 -15
-89 -181 -128 -238 -74 -109 -155 -174 -218 -176 -147 -4 -25 283 165 387 68
37 181 54 181 27z m582 -5 c9 -45 -10 -133 -42 -200 -17 -36 -35 -66 -40 -66
-33 0 -42 119 -15 199 27 81 87 123 97 67z m549 2 c5 -86 -16 -171 -63 -247
l-21 -33 -13 23 c-31 55 -9 209 37 258 27 28 59 28 60 -1z"/>
</g>
</svg>
